<svg width="375" height="250" viewBox="0 0 375 250" fill="none" xmlns="http://www.w3.org/2000/svg">
<path d="M109.941 61.1314L53.8389 98.6589L109.097 181.267L165.199 143.74L109.941 61.1314Z" fill="#F5F5F5"/>
<path d="M136.21 139.83L135.573 143.77L107.684 139.753L108.321 135.812L136.21 139.83Z" fill="#E0E0E0"/>
<path d="M122.165 125.773L126.167 126.35L121.73 153.808L117.727 153.232L122.165 125.773Z" fill="#E0E0E0"/>
<path d="M96.476 90.8723C96.516 90.9323 90.8935 94.7628 83.92 99.4273C76.944 104.093 71.258 107.826 71.218 107.766C71.178 107.707 76.799 103.877 83.7755 99.2108C90.749 94.5463 96.436 90.8128 96.476 90.8723Z" fill="#E0E0E0"/>
<path d="M117.108 85.6933C117.148 85.7533 107.798 92.0768 96.2283 99.8153C84.6538 107.557 75.2418 113.782 75.2018 113.722C75.1618 113.663 84.5093 107.34 96.0833 99.5988C107.653 91.8603 117.068 85.6338 117.108 85.6933Z" fill="#E0E0E0"/>
<path d="M121.244 91.8764C121.284 91.9364 111.934 98.2599 100.364 105.998C88.7895 113.74 79.3775 119.965 79.3375 119.905C79.2975 119.845 88.645 113.523 100.219 105.782C111.79 98.0434 121.204 91.8169 121.244 91.8764Z" fill="#E0E0E0"/>
<path d="M125.379 98.06C125.419 98.12 116.069 104.444 104.499 112.182C92.9248 119.924 83.5128 126.149 83.4728 126.089C83.4328 126.029 92.7803 119.707 104.354 111.966C115.925 104.227 125.339 98 125.379 98.06Z" fill="#E0E0E0"/>
<path d="M129.515 104.243C129.555 104.303 120.206 110.626 108.636 118.365C97.061 126.107 87.649 132.332 87.609 132.272C87.569 132.212 96.9165 125.89 108.491 118.149C120.061 110.41 129.475 104.184 129.515 104.243Z" fill="#E0E0E0"/>
<path d="M297.539 116.488L250.423 148.004L296.83 217.381L343.946 185.865L297.539 116.488Z" fill="#F5F5F5"/>
<path d="M319.6 182.59L319.065 185.899L295.643 182.525L296.178 179.216L319.6 182.59Z" fill="#E0E0E0"/>
<path d="M307.804 170.785L311.165 171.269L307.439 194.33L304.078 193.846L307.804 170.785Z" fill="#E0E0E0"/>
<path d="M286.23 141.474C286.27 141.534 281.553 144.758 275.696 148.676C269.837 152.594 265.057 155.722 265.017 155.662C264.977 155.602 269.693 152.378 275.552 148.459C281.408 144.542 286.19 141.414 286.23 141.474Z" fill="#E0E0E0"/>
<path d="M303.557 137.125C303.597 137.185 295.75 142.503 286.033 149.002C276.313 155.504 268.403 160.724 268.363 160.664C268.323 160.604 276.168 155.287 285.889 148.786C295.605 142.287 303.517 137.065 303.557 137.125Z" fill="#E0E0E0"/>
<path d="M307.031 142.317C307.071 142.377 299.224 147.696 289.507 154.195C279.787 160.696 271.877 165.917 271.837 165.857C271.797 165.797 279.642 160.48 289.363 153.978C299.079 147.479 306.991 142.257 307.031 142.317Z" fill="#E0E0E0"/>
<path d="M310.503 147.51C310.543 147.57 302.697 152.888 292.98 159.388C283.259 165.889 275.35 171.11 275.31 171.05C275.27 170.99 283.115 165.673 292.835 159.171C302.552 152.672 310.463 147.451 310.503 147.51Z" fill="#E0E0E0"/>
<path d="M313.977 152.703C314.017 152.763 306.17 158.081 296.453 164.581C286.733 171.082 278.823 176.303 278.783 176.243C278.743 176.183 286.588 170.866 296.309 164.364C306.025 157.865 313.937 152.643 313.977 152.703Z" fill="#E0E0E0"/>
<path d="M222.995 64.1642L171.586 36.6699L131.102 112.368L182.511 139.862L222.995 64.1642Z" fill="#F5F5F5"/>
<path d="M173.711 116.184L170.449 117.301L162.17 94.4139L165.432 93.2969L173.711 116.184Z" fill="#E0E0E0"/>
<path d="M178.711 99.7646L179.9 103.049L157.17 110.834L155.982 107.549L178.711 99.7646Z" fill="#E0E0E0"/>
<path d="M194.862 65.9965C194.822 66.072 189.608 63.3615 183.217 59.944C176.825 56.525 171.677 53.6935 171.717 53.618C171.758 53.543 176.971 56.2525 183.363 59.671C189.754 63.089 194.903 65.9215 194.862 65.9965Z" fill="#E0E0E0"/>
<path d="M207.198 79.6136C207.158 79.6891 198.528 75.1521 187.926 69.4821C177.32 63.8096 168.758 59.1521 168.798 59.0766C168.839 59.0016 177.466 63.5371 188.072 69.2096C198.674 74.8796 207.239 79.5381 207.198 79.6136Z" fill="#E0E0E0"/>
<path d="M204.168 85.2796C204.128 85.3551 195.498 80.8181 184.896 75.1476C174.29 69.4751 165.728 64.8176 165.768 64.7421C165.809 64.6671 174.436 69.2026 185.042 74.8751C195.644 80.5451 204.208 85.2041 204.168 85.2796Z" fill="#E0E0E0"/>
<path d="M201.138 90.9449C201.097 91.0204 192.468 86.4834 181.866 80.8129C171.26 75.1409 162.697 70.4829 162.738 70.4074C162.778 70.3319 171.406 74.8679 182.012 80.5404C192.614 86.2109 201.178 90.8699 201.138 90.9449Z" fill="#E0E0E0"/>
<path d="M198.108 96.6109C198.067 96.6864 189.438 92.1494 178.836 86.4789C168.23 80.8069 159.667 76.1489 159.708 76.0734C159.748 75.9984 168.376 80.5339 178.982 86.2064C189.584 91.8769 198.148 96.5359 198.108 96.6109Z" fill="#E0E0E0"/>
<path opacity="0.2" d="M198.377 0H197.086V21.9915H198.377V0Z" fill="black"/>
<path d="M167.616 48.5945H227.847C227.847 48.5945 222.286 21.978 197.275 21.978C175.029 21.9775 167.616 48.5945 167.616 48.5945Z" fill="#3098DA"/>
<path d="M198.377 0H197.086V21.9915H198.377V0Z" fill="#3098DA"/>
<path d="M331.833 219.914C331.833 219.986 267.208 220.044 187.507 220.044C107.778 220.044 43.167 219.985 43.167 219.914C43.167 219.842 107.778 219.784 187.507 219.784C267.208 219.784 331.833 219.842 331.833 219.914Z" fill="#263238"/>
<path d="M59.1428 188.601C60.8333 188.66 62.4203 189.578 63.5353 190.85C64.6503 192.122 65.3338 193.722 65.7713 195.356C66.6173 198.518 66.0973 202.249 65.1958 205.395C61.7728 204.172 59.6623 200.522 58.7078 198.602C57.1988 195.569 56.3143 189.171 59.1428 188.601Z" fill="#3098DA"/>
<path d="M70.1208 209.227C69.0408 207.676 69.0153 205.52 69.8693 203.834C70.7228 202.148 72.3633 200.932 74.1698 200.377C75.0053 200.121 75.9743 200.013 76.7008 200.498C77.3803 200.952 77.6738 201.842 77.5858 202.654C77.4983 203.466 77.0868 204.21 76.6013 204.867C74.9368 207.12 72.9123 208.995 70.1208 209.227Z" fill="#3098DA"/>
<path d="M70.4976 219.792C70.4811 219.794 70.4291 219.56 70.3446 219.135C70.2531 218.666 70.1346 218.06 69.9926 217.333C69.7226 215.818 69.2941 213.663 69.6181 211.281C69.9296 208.91 70.8736 206.883 71.8631 205.672C72.3501 205.06 72.8166 204.626 73.1616 204.36C73.3286 204.219 73.4756 204.133 73.5691 204.067C73.6646 204.004 73.7171 203.975 73.7221 203.981C73.7596 204.024 72.9221 204.54 71.9966 205.774C71.0591 206.989 70.1606 208.981 69.8536 211.313C69.5346 213.646 69.9296 215.781 70.1581 217.304C70.2806 218.069 70.3791 218.689 70.4361 219.12C70.4926 219.55 70.5136 219.79 70.4976 219.792Z" fill="#263238"/>
<path d="M60.2469 193.413C60.2544 193.409 60.3019 193.499 60.3849 193.672C60.4759 193.869 60.5929 194.121 60.7374 194.434C61.0399 195.097 61.4649 196.063 61.9804 197.26C63.0119 199.655 64.3899 202.983 65.8289 206.692C67.2674 210.403 68.4934 213.791 69.3459 216.254C69.7729 217.486 70.1094 218.486 70.3334 219.18C70.4374 219.508 70.5214 219.773 70.5864 219.98C70.6419 220.164 70.6669 220.262 70.6594 220.265C70.6514 220.267 70.6114 220.175 70.5414 219.996C70.4654 219.793 70.3674 219.532 70.2464 219.21C69.9864 218.497 69.6274 217.514 69.1879 216.31C68.2949 213.862 67.0449 210.486 65.6074 206.778C64.1694 203.071 62.8164 199.735 61.8254 197.325C61.3384 196.14 60.9404 195.172 60.6519 194.47C60.5239 194.151 60.4204 193.892 60.3399 193.691C60.2719 193.512 60.2394 193.416 60.2469 193.413Z" fill="#263238"/>
<path d="M66.4345 212.802C64.416 209.367 60.647 207.025 56.6735 206.737C55.6615 206.664 54.4445 206.834 53.9935 207.743C53.5415 208.653 54.146 209.73 54.8355 210.477C57.7035 213.583 62.5555 214.666 66.4725 213.074" fill="#3098DA"/>
<path d="M58.2144 209.446C58.2154 209.43 58.4404 209.439 58.8479 209.47C59.0519 209.484 59.3014 209.502 59.5869 209.555C59.8719 209.608 60.2034 209.639 60.5564 209.738C60.9119 209.825 61.3039 209.912 61.7099 210.058C62.1239 210.181 62.5489 210.358 62.9954 210.547C63.8774 210.947 64.8129 211.471 65.7039 212.153C66.5884 212.842 67.3354 213.613 67.9429 214.368C68.2349 214.756 68.5139 215.123 68.7314 215.496C68.9719 215.854 69.1504 216.215 69.3179 216.54C69.4974 216.859 69.6034 217.175 69.7209 217.441C69.8394 217.706 69.9134 217.945 69.9724 218.141C70.0939 218.532 70.1529 218.749 70.1374 218.753C70.0869 218.771 69.8434 217.897 69.1694 216.617C68.9944 216.3 68.8099 215.95 68.5659 215.602C68.3449 215.239 68.0639 214.882 67.7724 214.505C67.1654 213.769 66.4279 213.018 65.5594 212.341C64.6844 211.672 63.7689 211.151 62.9054 210.746C62.4684 210.555 62.0524 210.373 61.6469 210.245C61.2499 210.093 60.8649 209.998 60.5164 209.901C59.1139 209.546 58.2089 209.498 58.2144 209.446Z" fill="#263238"/>
<path d="M285.18 52.7375C283.71 53.076 282.994 54.7675 282.855 56.27C282.715 57.772 282.907 59.3585 282.276 60.729C281.566 62.2715 279.87 63.4085 279.814 65.106C279.779 66.1405 280.394 67.1135 280.364 68.1485C280.316 69.848 278.583 71.1325 278.492 72.8305C278.426 74.053 279.24 75.2265 279.045 76.435C278.892 77.3755 278.16 78.1165 277.851 79.0175C277.234 80.814 278.468 82.7915 280.075 83.8025C281.867 84.9295 284.161 85.22 286.176 84.576C288.192 83.932 289.893 82.3645 290.699 80.408C291.588 78.2485 291.394 75.817 291.201 73.49C290.598 66.237 290.15 58.9715 289.858 51.6995" fill="#263238"/>
<path d="M280.912 78.3318C280.881 78.3033 281.314 78.1743 281.584 77.5328C281.715 77.2193 281.782 76.7973 281.755 76.3123C281.738 75.8243 281.572 75.2928 281.391 74.6933C281.223 74.0993 281.005 73.4098 281.13 72.6433C281.256 71.8648 281.813 71.2253 282.321 70.5973C282.577 70.2788 282.834 69.9478 282.996 69.5713C283.167 69.1988 283.203 68.7723 283.074 68.3723C282.816 67.5553 282.016 66.9543 281.648 66.0113C281.466 65.5388 281.464 65.0198 281.568 64.5523C281.667 64.0803 281.858 63.6518 282.05 63.2438C282.442 62.4298 282.873 61.6833 283.044 60.8908C283.395 59.3048 283.231 57.7908 283.47 56.5473C283.686 55.3013 284.213 54.3648 284.734 53.8833C284.988 53.6343 285.234 53.5018 285.395 53.4123C285.566 53.3388 285.656 53.3048 285.659 53.3133C285.676 53.3413 285.289 53.4603 284.806 53.9548C284.324 54.4423 283.84 55.3583 283.651 56.5778C283.552 57.1843 283.537 57.8663 283.512 58.5983C283.486 59.3298 283.463 60.1243 283.277 60.9453C283.104 61.7773 282.661 62.5533 282.281 63.3528C281.905 64.1383 281.559 65.0593 281.892 65.9203C282.209 66.7713 283.015 67.3758 283.317 68.2953C283.465 68.7528 283.417 69.2598 283.224 69.6698C283.04 70.0868 282.768 70.4278 282.507 70.7478C281.984 71.3798 281.461 71.9808 281.342 72.6808C281.217 73.3768 281.41 74.0483 281.567 74.6428C281.735 75.2373 281.896 75.7973 281.9 76.3058C281.914 76.8098 281.829 77.2488 281.677 77.5733C281.526 77.8998 281.319 78.1018 281.164 78.2043C281.011 78.3098 280.912 78.3318 280.912 78.3318Z" fill="#455A64"/>
<path d="M276.975 90.1831L272.462 103.194L253.64 104.203L250.502 111.187L270.152 113.175C274.07 114.795 278.547 112.81 279.977 108.818L285.221 94.1806L276.975 90.1831Z" fill="#B78876"/>
<path d="M315.907 212.848C315.907 212.848 302.114 169.04 301.822 167.617C301.557 166.332 306.827 134.805 307.491 126.646L288.854 127.341C288.854 127.341 288.854 127.391 288.853 127.477L280.931 127.917L288.026 217.513H296.603L295.752 187.788C301.041 201.986 308.619 216.455 308.619 216.455L315.907 212.848Z" fill="#B78876"/>
<path d="M296.102 198.442C296.109 198.17 295.998 188.482 295.998 188.482C295.891 189.062 292.71 180.071 292.787 179.524C292.826 179.241 296.102 198.442 296.102 198.442Z" fill="#A36957"/>
<path d="M292.424 175.268C292.404 175.267 292.386 175.46 292.369 175.811C292.35 176.161 292.346 176.669 292.38 177.296C292.392 177.61 292.425 177.953 292.466 178.321C292.513 178.687 292.563 179.08 292.648 179.488C292.803 180.305 293.043 181.19 293.349 182.098C293.972 183.91 294.659 185.495 295.147 186.646C295.378 187.17 295.577 187.621 295.744 188C295.89 188.318 295.98 188.49 295.998 188.483C296.017 188.475 295.962 188.289 295.847 187.959C295.732 187.628 295.557 187.154 295.334 186.57C294.894 185.401 294.236 183.803 293.619 182.007C293.317 181.108 293.073 180.239 292.906 179.436C292.815 179.036 292.757 178.651 292.701 178.29C292.651 177.929 292.607 177.592 292.582 177.282C292.523 176.663 292.496 176.159 292.481 175.811C292.462 175.461 292.443 175.268 292.424 175.268Z" fill="#A36957"/>
<path d="M287.865 217.955L287.861 217.15L296.646 216.767L296.67 220.089L296.128 220.126C293.717 220.267 283.857 220.674 282.244 220.19C280.443 219.65 287.865 217.955 287.865 217.955Z" fill="#455A64"/>
<path d="M296.792 219.888C296.792 219.891 296.74 219.897 296.642 219.905C296.512 219.913 296.37 219.922 296.21 219.932C295.779 219.952 295.248 219.977 294.622 220.006C293.28 220.059 291.426 220.108 289.377 220.117C287.328 220.126 285.473 220.093 284.131 220.052C283.505 220.029 282.974 220.008 282.542 219.992C282.382 219.983 282.24 219.975 282.111 219.968C282.012 219.961 281.96 219.956 281.961 219.952C281.961 219.949 282.013 219.947 282.112 219.946C282.242 219.947 282.384 219.949 282.544 219.95C282.976 219.957 283.507 219.966 284.133 219.977C285.475 219.999 287.329 220.02 289.377 220.011C291.425 220.002 293.278 219.965 294.62 219.931C295.246 219.915 295.777 219.901 296.209 219.89C296.369 219.887 296.511 219.885 296.641 219.883C296.74 219.883 296.792 219.884 296.792 219.888Z" fill="#263238"/>
<path d="M285.018 220.171C284.986 220.175 284.96 219.796 284.719 219.414C284.484 219.027 284.157 218.835 284.175 218.808C284.181 218.781 284.557 218.945 284.809 219.358C285.066 219.769 285.045 220.177 285.018 220.171Z" fill="#263238"/>
<path d="M287.593 218.854C287.568 218.869 287.444 218.72 287.316 218.519C287.188 218.319 287.104 218.144 287.129 218.128C287.153 218.112 287.277 218.262 287.406 218.462C287.533 218.663 287.617 218.838 287.593 218.854Z" fill="#263238"/>
<path d="M288.299 218.477C288.279 218.499 288.141 218.407 287.99 218.272C287.839 218.137 287.732 218.011 287.751 217.989C287.771 217.967 287.909 218.058 288.06 218.193C288.212 218.328 288.318 218.455 288.299 218.477Z" fill="#263238"/>
<path d="M288.743 217.65C288.744 217.679 288.54 217.706 288.287 217.71C288.035 217.713 287.83 217.693 287.83 217.664C287.829 217.634 288.033 217.608 288.286 217.604C288.538 217.6 288.743 217.621 288.743 217.65Z" fill="#263238"/>
<path d="M288.894 217.068C288.904 217.094 288.682 217.195 288.386 217.218C288.09 217.242 287.854 217.177 287.86 217.15C287.865 217.12 288.096 217.136 288.378 217.112C288.659 217.091 288.885 217.039 288.894 217.068Z" fill="#263238"/>
<path d="M287.293 218.092C287.294 218.104 287.078 218.131 286.731 218.091C286.558 218.071 286.353 218.03 286.133 217.961C286.023 217.923 285.909 217.894 285.79 217.821C285.735 217.784 285.673 217.732 285.651 217.647C285.627 217.563 285.672 217.468 285.735 217.422C286.271 217.142 286.81 217.442 287.01 217.719C287.12 217.86 287.171 217.998 287.195 218.093C287.218 218.189 287.216 218.244 287.21 218.244C287.19 218.252 287.171 218.023 286.952 217.766C286.844 217.64 286.681 217.518 286.471 217.456C286.273 217.398 285.99 217.383 285.802 217.504C285.713 217.571 285.748 217.675 285.847 217.734C285.94 217.794 286.06 217.829 286.163 217.868C286.376 217.94 286.574 217.987 286.742 218.016C287.079 218.075 287.293 218.075 287.293 218.092Z" fill="#263238"/>
<path d="M287.147 218.121C287.139 218.127 287.056 217.984 287.081 217.731C287.094 217.607 287.139 217.46 287.233 217.32C287.332 217.195 287.459 217.023 287.7 217.032C287.83 217.049 287.894 217.196 287.874 217.291C287.864 217.389 287.82 217.474 287.779 217.542C287.696 217.683 287.602 217.797 287.515 217.883C287.34 218.056 287.201 218.122 287.195 218.112C287.185 218.098 287.306 218.011 287.46 217.832C287.537 217.743 287.62 217.63 287.694 217.494C287.771 217.375 287.823 217.162 287.682 217.137C287.541 217.124 287.398 217.264 287.313 217.377C287.225 217.499 287.176 217.63 287.155 217.743C287.113 217.971 287.166 218.117 287.147 218.121Z" fill="#263238"/>
<path d="M296.605 217.497C296.603 217.517 296.355 217.474 295.96 217.522C295.569 217.567 295.025 217.73 294.553 218.108C294.082 218.488 293.806 218.983 293.677 219.356C293.545 219.731 293.533 219.983 293.513 219.98C293.507 219.98 293.503 219.917 293.512 219.804C293.521 219.691 293.547 219.527 293.606 219.332C293.719 218.944 293.995 218.421 294.487 218.026C294.979 217.631 295.549 217.475 295.952 217.448C296.156 217.433 296.321 217.443 296.433 217.459C296.546 217.474 296.606 217.491 296.605 217.497Z" fill="#263238"/>
<path d="M292.398 219.192C292.402 219.22 291.832 219.311 291.122 219.314C290.411 219.319 289.841 219.234 289.844 219.206C289.847 219.176 290.417 219.213 291.121 219.208C291.825 219.205 292.395 219.162 292.398 219.192Z" fill="#263238"/>
<path d="M294.111 219.174C294.132 219.195 294.064 219.295 294.007 219.426C293.947 219.557 293.918 219.674 293.887 219.672C293.859 219.672 293.842 219.534 293.91 219.383C293.977 219.231 294.092 219.153 294.111 219.174Z" fill="#263238"/>
<path d="M294.753 218.367C294.774 218.388 294.718 218.479 294.628 218.571C294.538 218.663 294.448 218.721 294.427 218.7C294.406 218.68 294.462 218.589 294.553 218.497C294.642 218.405 294.732 218.347 294.753 218.367Z" fill="#263238"/>
<path d="M295.676 217.997C295.67 218.026 295.554 218.026 295.425 218.072C295.296 218.114 295.205 218.186 295.182 218.166C295.158 218.15 295.231 218.026 295.391 217.972C295.55 217.916 295.684 217.97 295.676 217.997Z" fill="#263238"/>
<path d="M296.332 217.821C296.343 217.849 296.293 217.894 296.22 217.922C296.148 217.95 296.08 217.951 296.07 217.924C296.059 217.897 296.109 217.851 296.182 217.823C296.254 217.795 296.321 217.794 296.332 217.821Z" fill="#263238"/>
<path d="M308.446 217.18L308.113 216.447L315.97 212.499L317.353 215.52L316.874 215.775C314.732 216.892 305.904 221.301 304.234 221.521C302.371 221.766 308.446 217.18 308.446 217.18Z" fill="#455A64"/>
<path d="M317.383 215.287C317.384 215.29 317.34 215.316 317.253 215.364C317.138 215.424 317.012 215.491 316.87 215.566C316.485 215.761 316.011 216.001 315.452 216.284C314.25 216.882 312.578 217.686 310.713 218.534C308.847 219.381 307.141 220.111 305.9 220.623C305.319 220.858 304.827 221.057 304.426 221.219C304.277 221.277 304.144 221.328 304.023 221.374C303.93 221.409 303.881 221.425 303.879 221.422C303.878 221.418 303.924 221.395 304.015 221.355C304.134 221.303 304.264 221.246 304.411 221.181C304.808 221.011 305.296 220.802 305.871 220.555C307.105 220.025 308.804 219.285 310.669 218.438C312.533 217.591 314.209 216.798 315.419 216.217C315.984 215.946 316.463 215.716 316.852 215.529C316.997 215.461 317.126 215.4 317.243 215.345C317.333 215.304 317.381 215.283 317.383 215.287Z" fill="#263238"/>
<path d="M306.758 220.367C306.73 220.384 306.551 220.049 306.174 219.799C305.802 219.543 305.424 219.501 305.43 219.469C305.425 219.442 305.834 219.437 306.234 219.711C306.637 219.981 306.784 220.362 306.758 220.367Z" fill="#263238"/>
<path d="M308.566 218.111C308.55 218.135 308.376 218.049 308.177 217.919C307.978 217.789 307.829 217.663 307.845 217.639C307.861 217.615 308.036 217.701 308.235 217.831C308.434 217.961 308.582 218.086 308.566 218.111Z" fill="#263238"/>
<path d="M309.057 217.478C309.048 217.506 308.884 217.479 308.691 217.418C308.498 217.357 308.349 217.285 308.358 217.257C308.367 217.229 308.53 217.256 308.723 217.317C308.916 217.378 309.065 217.45 309.057 217.478Z" fill="#263238"/>
<path d="M309.124 216.542C309.136 216.569 308.961 216.677 308.733 216.784C308.504 216.89 308.309 216.955 308.297 216.929C308.284 216.902 308.46 216.794 308.688 216.688C308.916 216.581 309.111 216.516 309.124 216.542Z" fill="#263238"/>
<path d="M309.023 215.949C309.043 215.968 308.882 216.152 308.621 216.294C308.36 216.437 308.119 216.474 308.113 216.447C308.105 216.417 308.322 216.337 308.569 216.201C308.818 216.066 309.003 215.926 309.023 215.949Z" fill="#263238"/>
<path d="M307.982 217.539C307.987 217.55 307.802 217.663 307.469 217.768C307.303 217.82 307.099 217.867 306.87 217.895C306.754 217.904 306.638 217.925 306.5 217.908C306.434 217.897 306.356 217.875 306.301 217.806C306.245 217.739 306.247 217.635 306.286 217.567C306.66 217.092 307.275 217.145 307.571 217.315C307.729 217.399 307.832 217.504 307.892 217.581C307.952 217.659 307.973 217.71 307.968 217.713C307.953 217.728 307.842 217.527 307.537 217.382C307.387 217.311 307.188 217.266 306.972 217.296C306.767 217.325 306.503 217.427 306.381 217.614C306.327 217.711 306.402 217.792 306.516 217.805C306.625 217.821 306.749 217.805 306.859 217.798C307.083 217.777 307.283 217.738 307.448 217.696C307.779 217.611 307.975 217.523 307.982 217.539Z" fill="#263238"/>
<path d="M307.861 217.625C307.856 217.634 307.721 217.537 307.641 217.296C307.602 217.178 307.583 217.025 307.611 216.859C307.65 216.705 307.694 216.496 307.918 216.405C308.043 216.367 308.337 216.619 308.357 216.714C308.388 216.808 308.209 216.759 308.199 216.838C308.181 217.001 308.142 217.143 308.098 217.257C308.008 217.487 307.909 217.604 307.899 217.597C307.884 217.589 307.96 217.459 308.027 217.233C308.061 217.12 308.09 216.983 308.102 216.829C308.123 216.689 308.083 216.473 307.944 216.508C307.811 216.554 307.738 216.741 307.706 216.878C307.676 217.025 307.685 217.165 307.712 217.277C307.768 217.502 307.876 217.613 307.861 217.625Z" fill="#263238"/>
<path d="M316.233 213.182C316.24 213.201 315.995 213.263 315.655 213.469C315.316 213.67 314.887 214.041 314.611 214.579C314.336 215.118 314.288 215.684 314.323 216.076C314.356 216.472 314.449 216.707 314.43 216.713C314.424 216.715 314.395 216.659 314.357 216.552C314.318 216.446 314.276 216.286 314.249 216.084C314.193 215.683 314.23 215.093 314.517 214.531C314.805 213.97 315.26 213.594 315.618 213.404C315.797 213.307 315.952 213.248 316.061 213.216C316.169 213.185 316.231 213.176 316.233 213.182Z" fill="#263238"/>
<path d="M313.089 216.452C313.104 216.475 312.621 216.792 311.975 217.085C311.329 217.381 310.773 217.537 310.765 217.511C310.755 217.482 311.291 217.282 311.931 216.989C312.571 216.698 313.074 216.425 313.089 216.452Z" fill="#263238"/>
<path d="M314.643 215.733C314.671 215.744 314.651 215.863 314.652 216.006C314.651 216.15 314.672 216.268 314.643 216.279C314.617 216.291 314.545 216.172 314.546 216.006C314.545 215.84 314.617 215.722 314.643 215.733Z" fill="#263238"/>
<path d="M314.9 214.735C314.927 214.745 314.913 214.851 314.869 214.972C314.824 215.093 314.766 215.182 314.739 215.172C314.711 215.162 314.725 215.056 314.77 214.935C314.814 214.815 314.873 214.725 314.9 214.735Z" fill="#263238"/>
<path d="M315.59 214.019C315.596 214.048 315.49 214.095 315.392 214.189C315.291 214.281 315.237 214.384 315.208 214.375C315.18 214.37 315.196 214.227 315.319 214.112C315.442 213.996 315.587 213.99 315.59 214.019Z" fill="#263238"/>
<path d="M316.117 213.59C316.138 213.61 316.111 213.672 316.057 213.727C316.002 213.783 315.941 213.811 315.92 213.791C315.899 213.77 315.927 213.709 315.981 213.653C316.035 213.598 316.096 213.569 316.117 213.59Z" fill="#263238"/>
<path d="M306.282 111.817L304.819 93.9689L312.333 94.1029C312.333 94.1029 312.681 91.4714 311.574 85.6984C310.895 82.1584 308.537 79.9874 305.893 78.6974L305.894 78.6499L305.664 78.5899C302.302 77.0159 298.782 76.7939 298.782 76.7939L289.558 76.9004C289.558 76.9004 282.512 76.0214 278.612 81.0444C277.11 82.9794 272.461 96.2219 272.461 96.2219L283.532 101.553L282.478 94.2099C282.478 94.2099 282.688 99.5344 283.367 101.221C283.746 102.161 284.842 105.079 284.842 105.079L284.699 113.887L306.282 111.817Z" fill="#3098DA"/>
<path d="M301.194 91.3779L299.825 97.2109H312.74L311.891 87.4319L301.194 91.3779Z" fill="#3098DA"/>
<path d="M312.74 97.2108C312.742 97.1723 312.089 97.1038 311.03 97.0418C309.972 96.9798 308.507 96.9273 306.888 96.9348C305.269 96.9428 303.805 97.0128 302.747 97.0968C301.69 97.1803 301.039 97.2698 301.042 97.3073C301.045 97.3483 301.701 97.3298 302.758 97.2978C303.816 97.2653 305.276 97.2273 306.891 97.2193C308.504 97.2123 309.965 97.2323 311.024 97.2428C312.082 97.2538 312.738 97.2508 312.74 97.2108Z" fill="#263238"/>
<path d="M300.636 87.3838C300.597 87.3853 300.583 87.9523 300.593 88.8673C300.603 89.7828 300.636 91.0458 300.69 92.4408C300.744 93.8358 300.809 95.0983 300.871 96.0118C300.932 96.9248 300.99 97.4888 301.029 97.4873C301.068 97.4858 301.082 96.9188 301.072 96.0038C301.062 95.0888 301.029 93.8248 300.975 92.4298C300.921 91.0348 300.856 89.7728 300.794 88.8593C300.733 87.9468 300.676 87.3823 300.636 87.3838Z" fill="#263238"/>
<g opacity="0.3">
<path d="M288.884 92.436C288.884 92.436 291.755 113.72 299.825 113.157C299.825 113.157 303.458 113.114 304.626 110.699V109.748L288.884 92.436Z" fill="black"/>
</g>
<g opacity="0.3">
<path d="M300.637 88.6384L299.092 99.0724L300.092 100.903L301.739 97.3234L301.042 97.3069L300.637 88.6384Z" fill="black"/>
</g>
<path d="M284.843 105.08C284.826 105.086 284.749 104.908 284.625 104.582C284.5 104.256 284.333 103.779 284.14 103.185C283.755 101.997 283.278 100.334 282.905 98.4625C282.534 96.589 282.352 94.866 282.293 93.617C282.263 92.9925 282.254 92.4865 282.263 92.137C282.27 91.7875 282.282 91.5945 282.3 91.5945C282.342 91.594 282.37 92.365 282.477 93.6045C282.583 94.844 282.792 96.5505 283.161 98.412C283.531 100.272 283.977 101.934 284.317 103.132C284.475 103.687 284.611 104.161 284.722 104.551C284.816 104.886 284.86 105.074 284.843 105.08Z" fill="#263238"/>
<path d="M288.106 111.197C288.037 111.218 287.837 110.758 287.66 110.171C287.482 109.584 287.394 109.091 287.463 109.07C287.532 109.049 287.731 109.509 287.909 110.096C288.086 110.683 288.175 111.176 288.106 111.197Z" fill="#263238"/>
<path d="M289.222 111.115C289.155 111.132 288.937 110.443 288.927 109.559C288.912 108.675 289.109 107.98 289.176 107.995C289.25 108.008 289.172 108.702 289.187 109.555C289.197 110.408 289.296 111.099 289.222 111.115Z" fill="#263238"/>
<path d="M283.758 101.798C283.726 101.862 281.15 100.64 278.004 99.068C274.858 97.4955 272.334 96.1695 272.366 96.105C272.398 96.0405 274.974 97.263 278.121 98.835C281.266 100.407 283.79 101.733 283.758 101.798Z" fill="#263238"/>
<path d="M288.298 78.6265C288.355 76.097 288.37 73.433 288.37 73.433C288.37 73.433 285.125 72.808 284.56 68.539C284.021 64.468 285.529 54.9155 285.529 54.9155C290.268 53.124 295.193 54.748 298.44 58.588L297.634 79.125C297.54 81.509 295.416 83.3275 292.864 83.208C290.286 83.087 288.243 81.0365 288.298 78.6265Z" fill="#B78876"/>
<path d="M285.282 62.5499C285.265 62.8374 285.494 63.0894 285.794 63.1134C286.093 63.1374 286.351 62.9239 286.368 62.6364C286.386 62.3489 286.157 62.0964 285.857 62.0724C285.557 62.0484 285.3 62.2624 285.282 62.5499Z" fill="#263238"/>
<path d="M285.079 61.8334C285.145 61.9064 285.566 61.6114 286.153 61.6279C286.739 61.6359 287.162 61.9489 287.227 61.8789C287.259 61.8479 287.194 61.7179 287.01 61.5764C286.829 61.4359 286.517 61.2954 286.152 61.2874C285.786 61.2799 285.475 61.4064 285.295 61.5399C285.111 61.6739 285.047 61.8009 285.079 61.8334Z" fill="#263238"/>
<path d="M291.236 62.9203C291.218 63.2078 291.447 63.4603 291.747 63.4843C292.047 63.5083 292.304 63.2948 292.322 63.0073C292.339 62.7198 292.11 62.4673 291.811 62.4433C291.511 62.4188 291.253 62.6328 291.236 62.9203Z" fill="#263238"/>
<path d="M291.195 62.2045C291.261 62.2775 291.683 61.9825 292.269 61.999C292.855 62.0075 293.278 62.3205 293.343 62.25C293.375 62.219 293.31 62.089 293.126 61.9475C292.945 61.807 292.633 61.6665 292.268 61.6585C291.902 61.651 291.591 61.7775 291.411 61.911C291.228 62.045 291.163 62.172 291.195 62.2045Z" fill="#263238"/>
<path d="M288.954 66.5005C288.958 66.467 288.595 66.395 288.006 66.304C287.856 66.2845 287.715 66.2515 287.693 66.1485C287.66 66.0395 287.727 65.8795 287.804 65.707C287.954 65.348 288.112 64.972 288.277 64.5775C288.934 62.969 289.414 61.645 289.349 61.619C289.284 61.593 288.698 62.8755 288.041 64.484C287.883 64.8805 287.731 65.259 287.587 65.6205C287.526 65.7895 287.424 65.98 287.494 66.2065C287.532 66.3195 287.64 66.4035 287.735 66.432C287.83 66.464 287.914 66.4675 287.988 66.474C288.582 66.522 288.951 66.534 288.954 66.5005Z" fill="#263238"/>
<path d="M288.37 73.433C288.37 73.433 291.225 73.691 294.102 72.061C294.102 72.061 292.646 74.946 288.401 74.438L288.37 73.433Z" fill="#A36957"/>
<path d="M293.073 60.512C292.953 60.6955 292.507 60.614 292.007 60.524C291.509 60.4235 291.064 60.335 291.019 60.12C290.97 59.914 291.486 59.6285 292.153 59.7565C292.82 59.8835 293.195 60.3385 293.073 60.512Z" fill="#263238"/>
<path d="M287.24 59.651C287.195 59.865 286.717 59.943 286.166 59.971C285.615 59.9935 285.132 59.9595 285.067 59.751C285.001 59.549 285.467 59.22 286.13 59.191C286.793 59.159 287.287 59.4435 287.24 59.651Z" fill="#263238"/>
<path d="M288.963 67.9051C288.84 67.8706 288.701 67.9411 288.639 68.0536C288.565 68.1871 288.599 68.3711 288.716 68.4696C288.832 68.5681 289.019 68.5706 289.139 68.4751C289.258 68.3801 289.297 68.1971 289.227 68.0616C289.157 67.9261 288.986 67.8521 288.839 67.8941" fill="#A36957"/>
<path d="M289.101 67.963C289.128 67.9395 289.007 67.7955 288.751 67.8515C288.633 67.8775 288.478 67.984 288.431 68.166C288.384 68.337 288.426 68.5585 288.607 68.6975C288.795 68.8295 289.021 68.8025 289.17 68.701C289.33 68.596 289.375 68.404 289.35 68.284C289.298 68.0205 289.103 67.9785 289.098 68.015C289.076 68.048 289.166 68.1395 289.148 68.2955C289.14 68.372 289.103 68.443 289.029 68.479C288.957 68.5185 288.841 68.5185 288.776 68.468C288.707 68.419 288.672 68.31 288.686 68.226C288.696 68.142 288.752 68.0795 288.82 68.041C288.959 67.962 289.083 67.999 289.101 67.963Z" fill="#263238"/>
<path d="M296.475 63.604C295.969 64.776 294.735 65.679 294.906 66.944C295.017 67.7605 295.541 68.5219 295.439 69.3399C295.311 70.3669 294.244 71.0789 294.093 72.1029C293.908 73.3589 295.129 74.335 295.617 75.507C296.328 77.2135 295.419 79.133 295.397 80.9815C295.365 83.813 297.772 86.458 300.594 86.6905C301.736 86.7845 303.022 86.44 303.613 85.4595C304.102 84.6505 304.004 83.6225 304.297 82.724C304.733 81.386 306.008 80.4065 306.277 79.025C306.767 76.5065 303.724 74.4225 303.924 71.8645C304.009 70.7715 304.684 69.818 304.971 68.76C305.347 67.374 305.002 65.8129 304.078 64.7139C303.327 63.8204 302.237 63.233 301.597 62.257C300.872 61.15 300.847 59.7465 300.573 58.4515C299.907 55.296 297.537 52.555 294.511 51.439C291.485 50.323 287.903 50.869 285.347 52.8355C285.347 52.8355 284.619 56.131 288.002 56.682C291.385 57.233 292.953 56.597 293.334 57.953C293.334 57.953 292.949 59.5365 294.347 61.0495C295.746 62.5635 297.061 62.247 296.475 63.604Z" fill="#263238"/>
<path d="M301.873 86.46C301.872 86.469 301.766 86.4575 301.565 86.428C301.364 86.3965 301.069 86.33 300.704 86.196C299.982 85.932 298.959 85.357 298.087 84.2585C297.654 83.714 297.248 83.054 296.974 82.278C296.694 81.5065 296.534 80.632 296.52 79.711C296.498 78.7895 296.629 77.823 296.88 76.856C297.006 76.372 297.169 75.889 297.359 75.4095C297.546 74.928 297.776 74.464 297.908 73.973C298.05 73.4835 298.031 72.9835 297.903 72.5065C297.772 72.0295 297.55 71.581 297.334 71.1375C297.117 70.6945 296.895 70.2525 296.752 69.7825C296.606 69.3165 296.552 68.814 296.647 68.3455C296.846 67.4035 297.418 66.7065 297.756 65.991C298.113 65.2825 298.225 64.5335 298.208 63.8615C298.148 62.4995 297.567 61.4925 297.093 60.912C296.599 60.331 296.225 60.1095 296.244 60.085C296.244 60.085 296.64 60.2725 297.17 60.846C297.678 61.419 298.305 62.44 298.392 63.8535C298.422 64.55 298.315 65.339 297.95 66.0855C297.605 66.827 297.053 67.529 296.883 68.391C296.707 69.2595 297.118 70.154 297.564 71.0245C297.782 71.4685 298.013 71.9275 298.154 72.438C298.294 72.945 298.314 73.518 298.16 74.04C298.018 74.5645 297.783 75.0345 297.601 75.5045C297.414 75.9745 297.253 76.447 297.128 76.9205C296.879 77.8665 296.747 78.809 296.761 79.7065C296.767 81.509 297.386 83.0845 298.233 84.1435C299.064 85.2275 300.045 85.8125 300.743 86.101C301.449 86.3875 301.879 86.4305 301.873 86.46Z" fill="#455A64"/>
<path d="M301.375 61.2295C301.377 61.246 301.113 61.2935 300.63 61.3405C300.149 61.38 299.439 61.436 298.571 61.2865C297.723 61.1315 296.651 60.7155 295.972 59.71C295.639 59.2055 295.507 58.595 295.29 58.0315C295.086 57.4615 294.691 56.968 294.151 56.626C293.057 55.9325 291.77 55.8475 290.644 55.7105C289.513 55.583 288.45 55.343 287.73 54.803C287.004 54.2865 286.632 53.6165 286.537 53.1335C286.482 52.8915 286.487 52.6975 286.498 52.5695C286.516 52.441 286.53 52.3755 286.539 52.377C286.571 52.3775 286.504 52.652 286.635 53.1085C286.756 53.5605 287.132 54.1785 287.835 54.652C288.529 55.1435 289.545 55.358 290.672 55.4725C291.788 55.5985 293.121 55.668 294.292 56.4075C294.871 56.7685 295.318 57.3345 295.528 57.94C295.75 58.535 295.875 59.1205 296.174 59.5805C296.783 60.511 297.792 60.9365 298.606 61.1065C299.441 61.275 300.144 61.249 300.624 61.2405C301.106 61.2235 301.373 61.2105 301.375 61.2295Z" fill="#455A64"/>
<path d="M300.134 57.1576C300.137 57.1701 299.932 57.2341 299.548 57.2436C299.167 57.2541 298.597 57.1866 297.97 56.8881C297.657 56.7396 297.336 56.5266 297.04 56.2421C296.74 55.9591 296.495 55.5931 296.265 55.2071C295.814 54.4466 295.38 53.5086 294.445 53.1211C293.529 52.7281 292.52 52.8156 291.643 52.8751C290.758 52.9621 289.929 52.9881 289.253 52.8551C288.572 52.7366 288.061 52.4546 287.777 52.1936C287.634 52.0646 287.537 51.9491 287.483 51.8636C287.427 51.7796 287.401 51.7336 287.409 51.7281C287.429 51.7121 287.549 51.8886 287.841 52.1151C288.132 52.3406 288.624 52.5821 289.283 52.6736C289.941 52.7786 290.734 52.7371 291.623 52.6361C292.504 52.5666 293.543 52.4556 294.55 52.8831C295.048 53.0946 295.455 53.4691 295.744 53.8746C296.038 54.2801 296.249 54.7036 296.472 55.0861C296.692 55.4691 296.919 55.8186 297.193 56.0886C297.463 56.3621 297.76 56.5721 298.052 56.7236C298.638 57.0281 299.181 57.1221 299.55 57.1421C299.922 57.1641 300.131 57.1351 300.134 57.1576Z" fill="#455A64"/>
<path d="M303.365 85.3811C303.34 85.3696 303.499 85.0476 303.683 84.4321C303.866 83.8186 304.048 82.8966 304.017 81.7521C303.978 80.6156 303.704 79.2406 302.95 77.9341C302.585 77.2791 302.029 76.6961 301.576 75.9766C301.351 75.6176 301.158 75.2151 301.073 74.7696C300.989 74.3236 301.04 73.8501 301.183 73.4201C301.464 72.5571 301.966 71.8301 302.074 71.0366C302.208 70.2406 301.806 69.5146 301.425 68.8686C301.233 68.5396 301.04 68.2146 300.89 67.8746C300.74 67.5346 300.645 67.1766 300.607 66.8306C300.531 66.1356 300.612 65.4971 300.664 64.9241C300.808 63.7821 300.702 62.8436 300.427 62.2671C300.16 61.6836 299.811 61.5086 299.836 61.4846C299.839 61.4811 299.859 61.4906 299.897 61.5136C299.934 61.5376 299.992 61.5691 300.056 61.6276C300.19 61.7361 300.368 61.9286 300.518 62.2231C300.834 62.8066 300.97 63.7881 300.847 64.9401C300.806 65.5156 300.739 66.1461 300.821 66.8046C300.887 67.4691 301.23 68.0961 301.631 68.7466C301.826 69.0756 302.031 69.4191 302.175 69.8091C302.323 70.1956 302.391 70.6376 302.326 71.0716C302.204 71.9461 301.689 72.6861 301.431 73.4991C301.296 73.9051 301.253 74.3221 301.327 74.7231C301.402 75.1241 301.578 75.4976 301.792 75.8426C302.221 76.5336 302.78 77.1286 303.157 77.8146C303.925 79.1721 304.183 80.5866 304.2 81.7481C304.209 82.9176 303.994 83.8511 303.779 84.4631C303.667 84.7686 303.573 85.0026 303.491 85.1536C303.417 85.3066 303.373 85.3851 303.365 85.3811Z" fill="#455A64"/>
<path d="M282.998 178.544C282.998 178.544 279.631 146.623 279.437 134.827C279.244 123.032 284.74 111.394 284.74 111.394L306.282 110.483C306.282 110.483 310.54 122.451 310.616 127.478C310.764 137.248 308.02 146.895 308.336 154.645L309.056 178.544" fill="#263238"/>
<path d="M309.777 139.301C309.782 139.309 309.66 139.401 309.426 139.568C309.366 139.61 309.3 139.656 309.229 139.706C309.162 139.763 309.096 139.835 309.021 139.908C308.87 140.053 308.693 140.218 308.541 140.445C307.845 141.297 307.338 142.819 306.855 144.718C306.59 145.661 306.32 146.719 305.765 147.755C305.616 148.007 305.482 148.275 305.286 148.511C305.193 148.631 305.108 148.759 305.005 148.875L304.673 149.206C304.224 149.649 303.654 149.982 303.053 150.246C301.847 150.774 300.486 151.025 299.243 151.649C297.991 152.258 297.053 153.44 296.478 154.8C295.871 156.155 295.503 157.577 294.997 158.905C294.5 160.223 293.823 161.506 292.749 162.316C291.683 163.155 290.365 163.347 289.224 163.421C288.064 163.488 286.99 163.455 286.027 163.601C285.067 163.734 284.217 164.038 283.615 164.511C283.012 164.985 282.66 165.579 282.495 166.088C282.323 166.603 282.354 167.038 282.411 167.314C282.467 167.595 282.546 167.729 282.528 167.737C282.528 167.737 282.434 167.611 282.36 167.327C282.285 167.047 282.236 166.597 282.398 166.059C282.555 165.526 282.905 164.903 283.524 164.397C284.146 163.891 285.02 163.567 285.999 163.419C286.98 163.259 288.066 163.282 289.209 163.205C290.339 163.123 291.601 162.925 292.603 162.125C293.618 161.353 294.271 160.119 294.759 158.815C295.257 157.503 295.622 156.078 296.241 154.694C296.821 153.309 297.816 152.053 299.128 151.422C300.421 150.78 301.783 150.537 302.958 150.026C303.544 149.772 304.088 149.457 304.518 149.039L304.836 148.725C304.935 148.616 305.018 148.492 305.108 148.378C305.298 148.155 305.429 147.895 305.575 147.652C306.123 146.652 306.402 145.606 306.678 144.669C307.182 142.78 307.725 141.234 308.461 140.383C308.623 140.156 308.809 139.993 308.969 139.851C309.048 139.78 309.118 139.71 309.189 139.655C309.264 139.608 309.332 139.565 309.396 139.525C309.643 139.37 309.773 139.293 309.777 139.301Z" fill="#FAFAFA"/>
<path d="M309.91 124.529C309.919 124.529 309.929 124.675 309.938 124.957C309.942 125.238 309.909 125.655 309.789 126.178C309.539 127.219 308.778 128.648 307.355 129.941C306.652 130.591 305.803 131.218 304.832 131.784C303.867 132.357 302.802 132.902 301.711 133.518C300.624 134.136 299.503 134.835 298.518 135.763C297.52 136.68 296.773 137.886 296.1 139.162C295.42 140.436 294.818 141.733 294.002 142.856C293.598 143.417 293.141 143.93 292.635 144.368C292.127 144.804 291.572 145.157 291.009 145.451C289.879 146.038 288.728 146.4 287.662 146.734C286.593 147.065 285.596 147.357 284.724 147.723C283.851 148.083 283.095 148.49 282.484 148.923C281.872 149.356 281.407 149.809 281.077 150.22C280.411 151.045 280.271 151.642 280.233 151.622C280.225 151.619 280.273 151.48 280.372 151.217C280.488 150.962 280.667 150.581 280.997 150.157C281.32 149.73 281.785 149.256 282.398 148.805C283.012 148.354 283.773 147.929 284.652 147.553C285.531 147.172 286.533 146.868 287.596 146.529C288.658 146.187 289.795 145.818 290.897 145.239C291.446 144.949 291.982 144.603 292.472 144.18C292.959 143.754 293.4 143.257 293.794 142.708C294.588 141.609 295.185 140.322 295.869 139.04C296.544 137.758 297.313 136.518 298.342 135.578C299.354 134.629 300.495 133.925 301.592 133.309C302.693 132.695 303.759 132.158 304.721 131.598C305.687 131.046 306.528 130.437 307.229 129.805C308.646 128.549 309.413 127.166 309.689 126.152C309.96 125.129 309.87 124.526 309.91 124.529Z" fill="#FAFAFA"/>
<path d="M279.546 136.518C279.542 136.519 279.527 136.487 279.502 136.421C279.481 136.354 279.435 136.258 279.405 136.123C279.344 135.856 279.306 135.434 279.455 134.925C279.733 133.907 280.839 132.64 282.622 132.005C283.508 131.701 284.514 131.517 285.563 131.242C286.599 130.963 287.728 130.572 288.571 129.706C288.989 129.278 289.343 128.769 289.638 128.21C289.924 127.645 290.161 127.039 290.384 126.414C290.833 125.167 291.209 123.812 291.97 122.58C292.726 121.338 293.957 120.476 295.231 120.044C296.502 119.577 297.784 119.37 298.974 119.095C300.167 118.836 301.282 118.5 302.228 117.987C303.161 117.457 303.904 116.752 304.431 116.004C305.509 114.504 305.792 112.968 305.83 111.953C305.854 110.922 305.69 110.36 305.724 110.355C305.724 110.355 305.923 110.907 305.931 111.955C305.923 112.986 305.666 114.559 304.581 116.11C304.05 116.884 303.294 117.619 302.334 118.176C301.363 118.712 300.225 119.062 299.028 119.329C297.832 119.611 296.558 119.824 295.321 120.283C294.076 120.711 292.919 121.528 292.191 122.718C291.456 123.905 291.079 125.245 290.625 126.5C290.399 127.13 290.156 127.746 289.859 128.325C289.553 128.901 289.182 129.431 288.74 129.877C287.845 130.785 286.665 131.179 285.618 131.452C284.555 131.72 283.554 131.892 282.68 132.18C280.946 132.772 279.846 133.986 279.553 134.955C279.395 135.441 279.414 135.848 279.457 136.113C279.513 136.376 279.557 136.514 279.546 136.518Z" fill="#FAFAFA"/>
<path d="M308.058 163.51C308.067 163.509 308.079 163.616 308.093 163.824C308.105 164.03 308.088 164.34 308.001 164.726C307.824 165.496 307.229 166.55 306.111 167.428C305.56 167.872 304.894 168.279 304.128 168.605C303.365 168.932 302.521 169.191 301.639 169.466C300.758 169.741 299.834 170.029 298.935 170.454C298.03 170.868 297.194 171.475 296.474 172.249C295.745 173.013 295.115 173.847 294.417 174.584C293.722 175.326 292.932 175.936 292.113 176.387C290.467 177.296 288.761 177.608 287.358 177.624C285.943 177.639 284.821 177.342 284.085 177.08C283.713 176.95 283.437 176.821 283.254 176.724C283.069 176.632 282.975 176.579 282.979 176.571C282.983 176.563 283.085 176.6 283.276 176.676C283.464 176.757 283.745 176.87 284.117 176.984C284.855 177.214 285.966 177.478 287.354 177.439C288.731 177.4 290.397 177.075 291.995 176.177C292.792 175.73 293.552 175.137 294.23 174.409C294.914 173.683 295.541 172.848 296.285 172.068C297.017 171.279 297.898 170.641 298.825 170.223C299.748 169.791 300.684 169.506 301.568 169.237C302.452 168.968 303.292 168.718 304.044 168.406C304.795 168.097 305.452 167.708 305.996 167.283C307.102 166.444 307.7 165.442 307.902 164.701C308.1 163.951 308.022 163.509 308.058 163.51Z" fill="#FAFAFA"/>
<path d="M305.602 97.232L301.437 97.3305C301.163 98.7335 300.495 99.6935 300.495 99.6935C297.012 93.6475 294.311 85.5475 293.641 82.292C293.738 81.967 293.854 81.607 293.999 81.205C294.165 80.741 294.022 79.862 293.944 79.3745C293.827 78.6495 293.624 77.6745 293.563 77.223C293.378 75.8475 293.156 75.6315 292.676 75.787C292.024 75.9985 292.944 79.65 292.409 79.7295C292.121 79.772 291.77 78.521 291.668 77.4945C291.566 76.468 291.102 73.3105 290.762 73.1C290.265 72.7915 289.831 73.2795 289.957 74.3015C290.084 75.336 290.244 78.4215 289.702 78.463C289.167 78.504 288.719 73.2695 288.719 73.2695C288.719 73.2695 288.803 72.1305 288.175 72.158C287.042 72.207 287.928 77.726 288.025 78.249C288.093 78.6125 287.504 78.6795 287.452 78.2845C287.399 77.878 287.126 73.0495 285.972 73.088C285.087 73.118 286.658 77.636 286.161 78.6835C285.664 79.7305 285.318 75.1265 284.473 75.19C284.159 75.214 283.926 75.2755 284.504 77.881C284.815 79.2815 285.728 81.856 286.525 83.988C287.865 91.213 293.744 114.326 302.96 110.095C308.118 107.727 310.21 97.235 310.21 97.235L305.602 97.232Z" fill="#B78876"/>
<path d="M287.829 78.602C287.829 78.602 287.871 78.6095 287.949 78.5855C288.019 78.564 288.159 78.476 288.137 78.2965C288.125 77.9865 288.076 77.534 288.004 76.9495C287.951 76.361 287.775 75.655 287.774 74.8195C287.767 74.401 287.778 73.951 287.802 73.474C287.818 73.2355 287.822 72.988 287.875 72.754C287.914 72.5275 288.066 72.2685 288.24 72.2995L288.259 72.303L288.268 72.3025C288.446 72.2945 288.585 72.433 288.642 72.645C288.704 72.8475 288.72 73.0865 288.707 73.3145L288.707 73.324L288.707 73.3305C288.824 74.6095 288.95 76.01 289.242 77.505C289.282 77.692 289.324 77.88 289.382 78.0695C289.411 78.164 289.444 78.2595 289.486 78.356C289.513 78.4055 289.53 78.4525 289.571 78.504C289.606 78.5475 289.652 78.6235 289.78 78.635C289.987 78.6195 290.047 78.4625 290.094 78.3725C290.139 78.269 290.167 78.1665 290.188 78.065C290.231 77.8615 290.252 77.6585 290.268 77.4545C290.323 76.639 290.295 75.807 290.235 74.9535C290.215 74.522 290.109 74.092 290.183 73.701C290.217 73.5085 290.297 73.3145 290.429 73.2345C290.493 73.1955 290.565 73.1875 290.644 73.2075C290.683 73.219 290.723 73.235 290.763 73.259C290.796 73.2905 290.788 73.2765 290.818 73.3325C290.985 73.6905 291.071 74.1565 291.165 74.5895C291.253 75.032 291.33 75.483 291.401 75.939C291.471 76.395 291.536 76.8565 291.59 77.3215C291.635 77.786 291.702 78.274 291.821 78.7435C291.881 78.98 291.947 79.216 292.046 79.45C292.097 79.5675 292.15 79.6835 292.252 79.8035C292.289 79.8545 292.406 79.95 292.552 79.9125C292.693 79.8655 292.733 79.7535 292.756 79.688C292.837 79.4005 292.813 79.1615 292.809 78.91C292.798 78.662 292.777 78.4165 292.757 78.1715C292.721 77.7505 292.681 77.334 292.667 76.9235C292.66 76.719 292.66 76.5145 292.682 76.322C292.694 76.228 292.71 76.131 292.743 76.0615C292.758 76.026 292.777 76 292.791 75.987C292.799 75.979 292.804 75.9825 292.81 75.9745L292.875 75.956C293.207 75.819 293.317 76.2805 293.405 76.6525C293.482 77.0405 293.531 77.441 293.609 77.8355C293.74 78.623 293.909 79.4055 293.996 80.158C294.032 80.5305 294.059 80.918 293.952 81.234C293.834 81.5955 293.717 81.953 293.601 82.3065L293.591 82.3385L293.598 82.372C294.208 85.0605 295.052 87.466 295.835 89.6015C296.627 91.735 297.418 93.579 298.117 95.0865C298.813 96.596 299.438 97.7585 299.87 98.552C300.089 98.928 300.262 99.225 300.39 99.446C300.511 99.6475 300.577 99.75 300.583 99.7465C300.59 99.7425 300.537 99.6325 300.43 99.424C300.311 99.1985 300.151 98.8945 299.948 98.5105C299.541 97.7055 298.941 96.534 298.268 95.0185C297.592 93.5045 296.822 91.6575 296.048 89.5235C295.283 87.3905 294.453 84.9785 293.861 82.318L293.858 82.3835C293.973 82.0345 294.09 81.682 294.208 81.3255C294.343 80.9175 294.303 80.519 294.27 80.129C294.18 79.347 294.017 78.587 293.886 77.796C293.809 77.405 293.762 77.0035 293.681 76.5935C293.634 76.389 293.59 76.183 293.477 75.9745C293.423 75.8735 293.339 75.7585 293.201 75.6965C293.062 75.636 292.919 75.653 292.807 75.6805L292.723 75.7045C292.685 75.7215 292.638 75.7415 292.609 75.769C292.545 75.8245 292.509 75.888 292.483 75.947C292.43 76.067 292.415 76.1775 292.4 76.2885C292.375 76.508 292.376 76.7215 292.382 76.9335C292.397 77.3575 292.438 77.777 292.473 78.1965C292.494 78.4405 292.514 78.6835 292.525 78.923C292.533 79.1565 292.542 79.4145 292.488 79.595C292.475 79.6475 292.451 79.6375 292.479 79.663L292.48 79.6655C292.478 79.6485 292.484 79.691 292.483 79.684L292.482 79.679C292.481 79.6725 292.482 79.6665 292.484 79.6615C292.486 79.657 292.497 79.6395 292.491 79.6385C292.487 79.637 292.475 79.6305 292.461 79.611C292.406 79.5475 292.351 79.4435 292.308 79.34C292.219 79.1305 292.153 78.903 292.096 78.6765C291.981 78.218 291.916 77.763 291.87 77.2905C291.814 76.82 291.749 76.3565 291.677 75.8975C291.605 75.4385 291.526 74.9845 291.435 74.5365C291.332 74.0855 291.266 73.652 291.055 73.2015C291.042 73.156 290.953 73.055 290.898 73.0255C290.842 72.992 290.779 72.966 290.712 72.947C290.578 72.91 290.413 72.927 290.289 73.0055C290.041 73.1695 289.965 73.43 289.92 73.656C289.879 73.889 289.885 74.119 289.911 74.341C289.936 74.5545 289.957 74.7635 289.974 74.975C290.037 75.817 290.068 76.6455 290.019 77.4375C290.005 77.635 289.985 77.8305 289.947 78.015C289.929 78.1075 289.903 78.197 289.871 78.274C289.855 78.312 289.835 78.3475 289.816 78.3675C289.798 78.409 289.782 78.358 289.784 78.4255C289.809 78.374 289.785 78.4025 289.765 78.3595C289.744 78.336 289.726 78.291 289.706 78.256C289.67 78.1745 289.639 78.0885 289.611 77.9995C289.556 77.822 289.513 77.638 289.473 77.4565C289.176 75.988 289.037 74.584 288.908 73.314V73.33C288.919 73.073 288.902 72.8275 288.827 72.5865C288.789 72.468 288.733 72.347 288.631 72.2535C288.532 72.157 288.389 72.114 288.261 72.118L288.288 72.121C288.087 72.0855 287.941 72.207 287.857 72.3275C287.771 72.4515 287.733 72.586 287.704 72.716C287.649 72.9785 287.65 73.228 287.637 73.4675C287.619 73.9485 287.615 74.401 287.629 74.824C287.645 75.677 287.837 76.383 287.905 76.9645C287.992 77.5455 288.057 77.9965 288.085 78.3005C288.117 78.445 288 78.538 287.939 78.5625C287.869 78.5915 287.828 78.596 287.829 78.602Z" fill="#A36957"/>
<path d="M255.266 104.116C255.266 104.116 253.883 104.05 252.37 104.448C249.788 105.127 245.33 107.828 245.146 111.166H248.383C248.383 111.166 246.57 115.025 247.103 114.668C248.485 113.741 251.237 110.944 251.237 110.944L255.266 104.116Z" fill="#B78876"/>
<path d="M299.429 46.022C299.357 46.0285 299.063 43.3515 298.772 40.044C298.481 36.735 298.304 34.0485 298.375 34.0425C298.447 34.036 298.741 36.7125 299.032 40.0215C299.323 43.3285 299.5 46.0155 299.429 46.022Z" fill="#263238"/>
<path d="M313.633 34.2055C313.692 34.247 311.504 37.422 308.748 41.2955C305.991 45.1705 303.709 48.277 303.65 48.2355C303.592 48.194 305.779 45.0195 308.536 41.1445C311.292 37.271 313.574 34.164 313.633 34.2055Z" fill="#263238"/>
<path d="M319.534 48.5938C319.548 48.6643 316.995 49.2483 313.833 49.8983C310.669 50.5483 308.093 51.0183 308.079 50.9478C308.064 50.8773 310.617 50.2933 313.78 49.6433C316.943 48.9938 319.519 48.5238 319.534 48.5938Z" fill="#263238"/>
<path d="M149.479 117.272L131.798 208.172L129.484 220.071L247.515 219.489C252.812 219.463 257.507 214.759 259.211 207.771L280.141 121.953C281.434 116.648 278.596 111.13 274.574 111.135L155.113 111.26C152.475 111.264 150.169 113.725 149.479 117.272Z" fill="#3098DA"/>
<g opacity="0.5">
<path d="M149.479 117.272L131.798 208.172L129.484 220.071L247.515 219.489C252.812 219.463 257.507 214.759 259.211 207.771L280.141 121.953C281.434 116.648 278.596 111.13 274.574 111.135L155.113 111.26C152.475 111.264 150.169 113.725 149.479 117.272Z" fill="black"/>
</g>
<path d="M236.194 202.013L223.697 101.309C223.185 97.1825 219.898 94.1045 216.017 94.1175L188.614 94.207C186.586 94.2135 184.641 95.076 183.2 96.6075L170.188 110.44L93.9746 110.837C89.3171 110.862 85.7391 115.268 86.3566 120.22L97.9596 213.296C98.4731 217.417 101.754 220.491 105.63 220.483L238.453 220.22C253.247 220.527 254.659 216.158 254.659 216.158C237.705 219.915 236.195 202.024 236.194 202.013Z" fill="#3098DA"/>
<path d="M255.16 51.8925C254.841 51.7555 254.611 51.445 254.595 51.0745L254.395 46.4325C254.382 46.1405 254.507 45.8595 254.732 45.6735C254.957 45.487 255.257 45.4175 255.541 45.4845C256.287 45.6605 257.11 45.498 257.799 45.0385C258.433 44.6155 258.858 43.9925 258.966 43.329C259.074 42.668 258.869 41.9365 258.405 41.3215C257.907 40.663 257.172 40.2195 256.434 40.135C254.929 39.9615 253.303 41.115 252.885 42.654C252.75 43.151 252.237 43.445 251.74 43.3095C251.235 43.1705 250.949 42.6615 251.084 42.1645C251.741 39.7455 254.237 38.0035 256.648 38.281C257.898 38.425 259.083 39.123 259.893 40.196C260.664 41.216 260.997 42.467 260.807 43.629C260.616 44.8015 259.897 45.8805 258.834 46.59C258.066 47.1025 257.185 47.3855 256.304 47.416L256.459 50.994C256.481 51.509 256.082 51.944 255.567 51.966C255.423 51.9725 255.285 51.9455 255.16 51.8925Z" fill="#3098DA"/>
<path d="M256.528 53.7885C256.557 54.209 256.239 54.5735 255.819 54.602C255.398 54.631 255.034 54.3135 255.005 53.893C254.976 53.4725 255.293 53.108 255.714 53.079C256.134 53.05 256.499 53.368 256.528 53.7885Z" fill="#3098DA"/>
<path d="M239.093 45.347C239.099 45.347 239.115 45.244 239.138 45.0425C239.162 44.825 239.195 44.529 239.236 44.1485C239.259 43.753 239.36 43.275 239.478 42.7115C239.544 42.4315 239.578 42.12 239.681 41.805C239.778 41.488 239.882 41.1515 239.991 40.7955C240.475 39.3915 241.221 37.7075 242.477 36.0325C243.724 34.361 245.478 32.7095 247.728 31.4585C248.837 30.7975 250.104 30.337 251.433 29.9305C252.783 29.611 254.213 29.337 255.708 29.3725C256.455 29.3325 257.209 29.442 257.977 29.5065C258.36 29.543 258.738 29.6455 259.123 29.7125C259.509 29.7835 259.896 29.859 260.274 29.99C261.817 30.386 263.317 31.114 264.746 32.0165C267.614 33.821 270.03 36.757 271.355 40.316C272.019 42.0965 272.337 44.0485 272.335 46.02C272.374 47.9955 271.992 50.002 271.289 51.891L271.063 52.462L271.034 52.5375L271.064 52.608C272.318 55.4965 273.548 58.3295 274.74 61.0745L274.95 60.8355C272.368 59.8435 269.864 58.8815 267.462 57.9585L267.37 57.923L267.297 57.9935C265.22 60.0065 262.738 61.367 260.226 62.076C257.706 62.7865 255.168 62.823 252.86 62.4125C250.546 62.003 248.463 61.118 246.726 59.9805C244.984 58.843 243.587 57.46 242.51 56.0545C241.441 54.6335 240.737 53.1765 240.205 51.875C239.737 50.545 239.45 49.3645 239.311 48.3875C239.252 47.8995 239.2 47.4655 239.154 47.087C239.144 46.713 239.136 46.395 239.129 46.1315C239.121 45.886 239.115 45.692 239.11 45.546C239.104 45.4145 239.098 45.347 239.093 45.347C239.089 45.347 239.085 45.4135 239.081 45.5455C239.079 45.692 239.077 45.8855 239.074 46.1325C239.073 46.397 239.072 46.7175 239.072 47.0935C239.111 47.475 239.155 47.9125 239.205 48.4045C239.328 49.391 239.601 50.586 240.059 51.9355C240.581 53.256 241.281 54.7375 242.352 56.1855C243.431 57.618 244.837 59.03 246.598 60.195C248.353 61.36 250.464 62.2705 252.812 62.6975C255.155 63.1245 257.736 63.098 260.302 62.383C262.861 61.67 265.393 60.2905 267.515 58.2425L267.35 58.2775C269.751 59.204 272.252 60.17 274.834 61.166L275.211 61.3115L275.045 60.927C273.854 58.181 272.626 55.3475 271.374 52.4585L271.375 52.604L271.605 52.0205C272.324 50.09 272.714 48.0375 272.673 46.0185C272.675 44.0035 272.347 42.008 271.666 40.1895C270.308 36.554 267.837 33.5665 264.911 31.7355C263.453 30.8195 261.924 30.0845 260.352 29.6855C259.968 29.554 259.573 29.4785 259.181 29.4075C258.789 29.3405 258.405 29.238 258.015 29.202C257.234 29.1395 256.468 29.032 255.709 29.0755C254.19 29.0465 252.737 29.3305 251.369 29.663C250.021 30.0825 248.737 30.558 247.616 31.235C245.341 32.5185 243.576 34.206 242.328 35.9095C241.071 37.616 240.335 39.3275 239.866 40.7505C239.761 41.111 239.662 41.4525 239.569 41.773C239.47 42.092 239.441 42.4065 239.38 42.6895C239.271 43.2595 239.18 43.7415 239.169 44.14C239.141 44.5225 239.12 44.8215 239.104 45.04C239.091 45.243 239.088 45.3465 239.093 45.347Z" fill="#263238"/>
</svg>
