<svg width="92" height="40" viewBox="0 0 92 40" fill="none" xmlns="http://www.w3.org/2000/svg">
<g clip-path="url(#clip0_1610_35818)">
<path fill-rule="evenodd" clip-rule="evenodd" d="M32.2362 34.6666H32.9606V2.28564H32.2362V34.6666Z" fill="#2C3E50"/>
<path fill-rule="evenodd" clip-rule="evenodd" d="M12.3334 32.3314C11.0346 30.5697 9.14775 30.8806 8.02052 31.062L7.65294 31.1138C5.34947 31.3988 4.71233 30.8288 4.68783 30.8288C4.63882 30.7511 4.61431 30.7511 4.5408 30.6993C4.49179 30.5957 4.46728 29.9221 4.5653 29.4039C4.85936 28.3158 4.36926 27.6422 4.12421 27.2536C3.87916 26.9168 3.83015 26.7355 3.83015 26.6577C4.17322 26.1137 4.0507 25.5955 3.78114 25.3106C3.70763 25.2328 3.60961 25.1551 3.48708 25.1292C3.36456 25.0774 3.29104 25.0256 3.24203 24.9997L3.26654 23.8857C3.34005 23.3675 3.24203 22.9012 2.99698 22.5644C2.75193 22.2535 2.45787 22.1758 2.33534 22.1499C1.89425 22.124 1.60019 22.0462 1.50217 21.9167C1.50217 21.8908 1.42866 21.7613 1.42866 21.7094C1.47767 21.3986 2.38435 19.5332 3.16852 18.0565C3.95268 16.4503 3.41357 15.2326 3.04599 14.4554C2.92346 14.1963 2.82544 13.9372 2.80094 13.7818C2.45787 10.0771 3.5606 7.7713 4.78585 6.19096C5.00639 5.88007 4.98189 5.43964 4.73684 5.18057C4.41827 4.84378 3.92817 4.89559 3.65862 5.23239C2.26183 7.0718 0.987565 9.68844 1.37965 13.9372C1.40415 14.3518 1.60019 14.7404 1.77173 15.129C2.09029 15.8285 2.35985 16.4243 1.91876 17.3311C-0.0906574 21.0618 -0.0171423 21.6835 0.00736274 21.8908C0.00736274 21.8908 0.00736276 22.4608 0.472959 22.9789C0.791525 23.3416 1.25712 23.5748 1.84524 23.6525C1.84524 23.6784 1.84524 23.7302 1.82074 23.782L1.79623 25.2069C1.82074 25.3883 1.89425 25.8805 2.40886 26.2691C2.31084 26.6577 2.33534 27.2795 2.87445 28.0826C3.14401 28.4713 3.26654 28.6267 3.14401 29.0671C3.04599 29.6371 2.82544 31.2952 3.70763 31.9687C4.02619 32.2796 5.10441 33.005 7.82448 32.6423L8.21656 32.5905C9.3928 32.4092 10.4465 32.3055 11.0836 33.1864C12.0148 35.0517 13.6322 38.5492 13.7792 39.3523C13.8282 39.7409 14.1468 40 14.4899 40C14.5389 40 14.5634 40 14.6124 39.9741C15.0045 39.8964 15.274 39.5078 15.2005 39.0933C15.0045 37.772 12.7745 33.2382 12.3334 32.3314Z" fill="#2C3E50"/>
<path fill-rule="evenodd" clip-rule="evenodd" d="M26.3518 4.69293C26.1511 4.48508 25.9755 4.25125 25.7748 4.0434C25.4737 3.73163 24.997 3.73163 24.7211 4.0434C24.42 4.35517 24.4451 4.82283 24.7211 5.1346C24.8967 5.34245 25.0974 5.52432 25.2479 5.73217C29.2622 10.3568 28.5346 14.3059 28.5095 14.4618C28.4342 16.5403 26.0006 20.2556 25.0723 21.5286C22.0867 25.9974 23.5168 29.4788 23.567 29.6347C23.7426 30.0244 24.1691 30.2063 24.5454 30.0244C24.9218 29.8685 25.0974 29.4009 24.9218 29.0112C24.8716 28.8813 23.7928 26.1273 26.2766 22.438C26.6278 21.9703 29.8894 17.4496 29.9898 14.6696C29.9898 14.5917 30.893 9.94109 26.3518 4.69293Z" fill="#2C3E50"/>
<path fill-rule="evenodd" clip-rule="evenodd" d="M42.005 16.5278C42.005 17.3134 41.7327 17.9298 41.1882 18.377C40.6436 18.8241 39.8925 19.0477 38.9347 19.0477C37.9769 19.0477 37.1928 18.8926 36.5826 18.5824V17.2167C36.9689 17.4061 37.3792 17.5551 37.8137 17.6639C38.2482 17.7727 38.6527 17.827 39.0273 17.827C39.5758 17.827 39.9803 17.7183 40.241 17.5007C40.5017 17.2832 40.6321 16.9911 40.6321 16.6245C40.6321 16.2941 40.5123 16.0141 40.2729 15.7845C40.0334 15.5549 39.5391 15.2829 38.7898 14.9687C38.0174 14.6424 37.4728 14.2697 37.1562 13.8507C36.8395 13.4318 36.6811 12.9282 36.6811 12.34C36.6811 11.6027 36.9321 11.0226 37.4342 10.5996C37.9363 10.1766 38.6102 9.96508 39.456 9.96508C40.2671 9.96508 41.0742 10.1504 41.8776 10.521L41.4373 11.6994C40.6842 11.3691 40.0122 11.2039 39.4213 11.2039C38.9733 11.2039 38.6334 11.3056 38.4017 11.5091C38.1699 11.7125 38.0541 11.9814 38.0541 12.3158C38.0541 12.5454 38.1004 12.7418 38.1931 12.905C38.2858 13.0682 38.4384 13.2223 38.6508 13.3673C38.8632 13.5123 39.2456 13.7037 39.7978 13.9414C40.4196 14.2113 40.8753 14.4631 41.165 14.6968C41.4547 14.9304 41.6671 15.1943 41.8023 15.4884C41.9374 15.7825 42.005 16.129 42.005 16.5278ZM45.8864 17.8996C46.2186 17.8996 46.5507 17.8452 46.8829 17.7364V18.806C46.7322 18.8745 46.5382 18.9319 46.3007 18.9782C46.0631 19.0246 45.8169 19.0477 45.562 19.0477C44.2721 19.0477 43.6271 18.3387 43.6271 16.9206V13.319H42.7523V12.6905L43.6908 12.1708L44.1543 10.7567H44.9943V12.2433H46.8191V13.319H44.9943V16.8964C44.9943 17.2389 45.0764 17.4917 45.2405 17.6548C45.4046 17.818 45.6199 17.8996 45.8864 17.8996ZM51.4131 12.1224C51.6873 12.1224 51.9133 12.1426 52.0909 12.1829L51.9577 13.5063C51.7646 13.458 51.5637 13.4338 51.3552 13.4338C50.8106 13.4338 50.3694 13.6191 50.0314 13.9897C49.6935 14.3604 49.5245 14.8418 49.5245 15.434V18.9269H48.1631V12.2433H49.2291L49.4087 13.4217H49.4782C49.6906 13.0229 49.9677 12.7066 50.3095 12.4729C50.6513 12.2393 51.0192 12.1224 51.4131 12.1224ZM57.7972 18.9269L57.606 18.0506H57.5365C57.3472 18.3608 57.0778 18.6046 56.7283 18.7818C56.3788 18.9591 55.98 19.0477 55.532 19.0477C54.7558 19.0477 54.1764 18.8463 53.7941 18.4434C53.4117 18.0406 53.2206 17.4302 53.2206 16.6124V12.2433H54.5935V16.3646C54.5935 16.8763 54.694 17.26 54.8948 17.5158C55.0956 17.7717 55.4104 17.8996 55.8391 17.8996C56.4107 17.8996 56.8307 17.7213 57.0991 17.3648C57.3675 17.0082 57.5017 16.411 57.5017 15.573V12.2433H58.8689V18.9269H57.7972ZM63.3934 19.0477C62.424 19.0477 61.6873 18.7526 61.1833 18.1624C60.6793 17.5722 60.4273 16.7252 60.4273 15.6213C60.4273 14.4973 60.6908 13.6332 61.218 13.0289C61.7452 12.4246 62.507 12.1224 63.5034 12.1224C64.1793 12.1224 64.7876 12.2534 65.3283 12.5152L64.917 13.6574C64.3415 13.4237 63.8665 13.3069 63.4918 13.3069C62.3834 13.3069 61.8292 14.0743 61.8292 15.6093C61.8292 16.3586 61.9673 16.9216 62.2434 17.2983C62.5195 17.675 62.9241 17.8633 63.4571 17.8633C64.0634 17.8633 64.637 17.7062 65.1776 17.392V18.6308C64.9343 18.7798 64.6746 18.8866 64.3985 18.951C64.1223 19.0155 63.7873 19.0477 63.3934 19.0477ZM69.0706 17.8996C69.4028 17.8996 69.7349 17.8452 70.0671 17.7364V18.806C69.9164 18.8745 69.7224 18.9319 69.4849 18.9782C69.2473 19.0246 69.0011 19.0477 68.7462 19.0477C67.4563 19.0477 66.8113 18.3387 66.8113 16.9206V13.319H65.9366V12.6905L66.875 12.1708L67.3385 10.7567H68.1785V12.2433H70.0033V13.319H68.1785V16.8964C68.1785 17.2389 68.2606 17.4917 68.4247 17.6548C68.5888 17.818 68.8042 17.8996 69.0706 17.8996ZM75.866 18.9269L75.6749 18.0506H75.6053C75.4161 18.3608 75.1467 18.6046 74.7972 18.7818C74.4477 18.9591 74.0489 19.0477 73.6009 19.0477C72.8246 19.0477 72.2453 18.8463 71.8629 18.4434C71.4806 18.0406 71.2894 17.4302 71.2894 16.6124V12.2433H72.6624V16.3646C72.6624 16.8763 72.7628 17.26 72.9636 17.5158C73.1645 17.7717 73.4792 17.8996 73.9079 17.8996C74.4795 17.8996 74.8995 17.7213 75.1679 17.3648C75.4364 17.0082 75.5706 16.411 75.5706 15.573V12.2433H76.9378V18.9269H75.866ZM82.1284 12.1224C82.4026 12.1224 82.6286 12.1426 82.8062 12.1829L82.673 13.5063C82.4799 13.458 82.2791 13.4338 82.0705 13.4338C81.5259 13.4338 81.0847 13.6191 80.7467 13.9897C80.4088 14.3604 80.2399 14.8418 80.2399 15.434V18.9269H78.8785V12.2433H79.9444L80.124 13.4217H80.1935C80.4059 13.0229 80.683 12.7066 81.0248 12.4729C81.3666 12.2393 81.7345 12.1224 82.1284 12.1224ZM87.7652 18.9269L87.4929 17.9963H87.4465C87.1376 18.4032 86.8267 18.6801 86.5139 18.8272C86.201 18.9742 85.7993 19.0477 85.3089 19.0477C84.6793 19.0477 84.1879 18.8705 83.8345 18.516C83.4811 18.1614 83.3044 17.6599 83.3044 17.0112C83.3044 16.3223 83.5497 15.8026 84.0402 15.4521C84.5306 15.1016 85.278 14.9103 86.2821 14.8781L87.3886 14.8418V14.4853C87.3886 14.0582 87.293 13.7389 87.1019 13.5274C86.9107 13.3159 86.6143 13.2102 86.2126 13.2102C85.8843 13.2102 85.5695 13.2605 85.2683 13.3613C84.9671 13.462 84.6774 13.5808 84.3993 13.7178L83.9591 12.7026C84.3067 12.5132 84.6871 12.3692 85.1003 12.2705C85.5136 12.1718 85.9036 12.1224 86.2705 12.1224C87.0854 12.1224 87.7005 12.3077 88.1156 12.6784C88.5308 13.049 88.7384 13.6312 88.7384 14.4248V18.9269H87.7652ZM85.7375 17.96C86.2319 17.96 86.6287 17.816 86.928 17.5279C87.2274 17.2399 87.377 16.836 87.377 16.3163V15.7362L86.5544 15.7724C85.9133 15.7966 85.4469 15.9084 85.1554 16.1078C84.8638 16.3072 84.718 16.6124 84.718 17.0233C84.718 17.3215 84.8029 17.5521 84.9729 17.7153C85.1428 17.8784 85.3977 17.96 85.7375 17.96ZM92 18.9269H90.6386V9.52393H92V18.9269Z" fill="#1F2C3D"/>
<path fill-rule="evenodd" clip-rule="evenodd" d="M38.0315 30.1365V21.2029H39.0132V29.1955H42.738V30.1365H38.0315ZM46.6996 30.2587C45.764 30.2587 45.0258 29.9573 44.4849 29.3544C43.944 28.7514 43.6735 27.9143 43.6735 26.8429C43.6735 25.7634 43.9247 24.9059 44.4272 24.2704C44.9296 23.6349 45.6043 23.3172 46.4512 23.3172C47.2443 23.3172 47.8719 23.5931 48.3338 24.1451C48.7959 24.6971 49.0268 25.4253 49.0268 26.3296V26.9713H44.6668C44.6861 27.7575 44.8738 28.3543 45.2299 28.7616C45.586 29.169 46.0874 29.3727 46.7342 29.3727C47.4157 29.3727 48.0894 29.222 48.7554 28.9205V29.8249C48.4166 29.9797 48.0961 30.0907 47.7939 30.1579C47.4917 30.2251 47.1269 30.2587 46.6996 30.2587ZM46.4397 24.1665C45.9315 24.1665 45.5263 24.3417 45.2241 24.692C44.9219 25.0424 44.7438 25.5271 44.6899 26.1463H47.9989C47.9989 25.5068 47.8642 25.0169 47.5947 24.6768C47.3252 24.3366 46.9402 24.1665 46.4397 24.1665ZM54.5534 30.1365L54.3628 29.1833H54.3166C54.0009 29.6028 53.6862 29.887 53.3724 30.0357C53.0586 30.1844 52.6669 30.2587 52.1972 30.2587C51.5697 30.2587 51.0779 30.0876 50.7217 29.7454C50.3656 29.4032 50.1876 28.9164 50.1876 28.285C50.1876 26.9325 51.2097 26.2237 53.254 26.1586L54.3282 26.1219V25.7064C54.3282 25.1809 54.2213 24.7929 54.0077 24.5423C53.794 24.2918 53.4523 24.1665 52.9826 24.1665C52.4552 24.1665 51.8584 24.3376 51.1924 24.6798L50.8979 23.9038C51.2097 23.7245 51.5514 23.584 51.9229 23.4821C52.2945 23.3803 52.6669 23.3294 53.0404 23.3294C53.7949 23.3294 54.3541 23.5066 54.718 23.861C55.0818 24.2154 55.2637 24.7837 55.2637 25.5658V30.1365H54.5534ZM52.3878 29.4216C52.9846 29.4216 53.4533 29.2484 53.794 28.9022C54.1347 28.5559 54.3051 28.0711 54.3051 27.4479V26.8429L53.3464 26.8857C52.5841 26.9142 52.0346 27.0395 51.6977 27.2615C51.3608 27.4835 51.1924 27.8288 51.1924 28.2972C51.1924 28.6639 51.2973 28.9429 51.5071 29.1344C51.717 29.3258 52.0105 29.4216 52.3878 29.4216ZM60.1261 23.3172C60.4072 23.3172 60.6593 23.3416 60.8826 23.3905L60.7498 24.3315C60.488 24.2704 60.257 24.2398 60.0568 24.2398C59.5448 24.2398 59.1069 24.4598 58.743 24.8998C58.3792 25.3397 58.1973 25.8876 58.1973 26.5435V30.1365H57.2387V23.4394H58.0298L58.1396 24.6798H58.1858C58.4206 24.2439 58.7036 23.9078 59.0347 23.6716C59.3658 23.4353 59.7296 23.3172 60.1261 23.3172ZM66.3976 30.1365V25.8041C66.3976 25.2583 66.2802 24.8509 66.0454 24.582C65.8105 24.3132 65.4428 24.1787 64.9424 24.1787C64.2802 24.1787 63.7951 24.3682 63.4871 24.747C63.1791 25.1259 63.0251 25.7512 63.0251 26.623V30.1365H62.0665V23.4394H62.8461L63.002 24.356H63.0482C63.2445 24.026 63.5198 23.7704 63.874 23.5891C64.2282 23.4078 64.6228 23.3172 65.0578 23.3172C65.8201 23.3172 66.3938 23.5117 66.7788 23.9007C67.1637 24.2898 67.3562 24.912 67.3562 25.7675V30.1365H66.3976ZM70.2841 30.1365H69.3255V23.4394H70.2841V30.1365ZM69.2446 21.6245C69.2446 21.3923 69.2985 21.2223 69.4063 21.1143C69.5141 21.0064 69.6489 20.9524 69.8106 20.9524C69.9646 20.9524 70.0974 21.0074 70.209 21.1174C70.3207 21.2274 70.3765 21.3964 70.3765 21.6245C70.3765 21.8527 70.3207 22.0228 70.209 22.1348C70.0974 22.2468 69.9646 22.3028 69.8106 22.3028C69.6489 22.3028 69.5141 22.2468 69.4063 22.1348C69.2985 22.0228 69.2446 21.8527 69.2446 21.6245ZM76.648 30.1365V25.8041C76.648 25.2583 76.5306 24.8509 76.2957 24.582C76.0609 24.3132 75.6932 24.1787 75.1927 24.1787C74.5306 24.1787 74.0455 24.3682 73.7375 24.747C73.4295 25.1259 73.2755 25.7512 73.2755 26.623V30.1365H72.3169V23.4394H73.0964L73.2524 24.356H73.2986C73.4949 24.026 73.7702 23.7704 74.1244 23.5891C74.4786 23.4078 74.8732 23.3172 75.3082 23.3172C76.0705 23.3172 76.6441 23.5117 77.0291 23.9007C77.4141 24.2898 77.6066 24.912 77.6066 25.7675V30.1365H76.648ZM84.7559 23.4394V24.081L83.5836 24.2276C83.6914 24.3702 83.7877 24.5566 83.8723 24.7867C83.957 25.0169 83.9994 25.2766 83.9994 25.5658C83.9994 26.2217 83.7877 26.7452 83.3642 27.1362C82.9407 27.5273 82.3593 27.7228 81.6201 27.7228C81.4315 27.7228 81.2544 27.7065 81.0889 27.674C80.6808 27.9021 80.4767 28.1893 80.4767 28.5355C80.4767 28.7189 80.5479 28.8543 80.6904 28.9419C80.8328 29.0295 81.0773 29.0733 81.4238 29.0733H82.5441C83.2294 29.0733 83.7559 29.226 84.1235 29.5316C84.4912 29.8371 84.675 30.2811 84.675 30.8636C84.675 31.6051 84.394 32.1703 83.8319 32.5593C83.2698 32.9484 82.4498 33.1429 81.3718 33.1429C80.5441 33.1429 79.906 32.9799 79.4574 32.654C79.0089 32.3281 78.7847 31.8678 78.7847 31.2731C78.7847 30.8657 78.9079 30.5133 79.1543 30.2159C79.4007 29.9186 79.7472 29.7169 80.1937 29.611C80.0321 29.5336 79.8964 29.4134 79.7866 29.2505C79.6769 29.0875 79.622 28.8981 79.622 28.6822C79.622 28.4378 79.6836 28.2239 79.8068 28.0406C79.93 27.8573 80.1245 27.6801 80.3901 27.509C80.0629 27.3664 79.7962 27.124 79.5903 26.7818C79.3843 26.4396 79.2813 26.0486 79.2813 25.6086C79.2813 24.8753 79.4892 24.3101 79.905 23.9129C80.3208 23.5158 80.9098 23.3172 81.6721 23.3172C82.0032 23.3172 82.3016 23.3579 82.5672 23.4394H84.7559ZM79.7087 31.2608C79.7087 31.6234 79.853 31.8984 80.1418 32.0857C80.4305 32.2731 80.8444 32.3668 81.3834 32.3668C82.188 32.3668 82.7838 32.2395 83.1707 31.9849C83.5576 31.7303 83.7511 31.3851 83.7511 30.9492C83.7511 30.5866 83.6452 30.3351 83.4335 30.1945C83.2217 30.054 82.8232 29.9837 82.2381 29.9837H81.0889C80.6538 29.9837 80.315 30.0937 80.0725 30.3137C79.8299 30.5337 79.7087 30.8494 79.7087 31.2608ZM80.2284 25.5842C80.2284 26.0526 80.3535 26.407 80.6038 26.6474C80.854 26.8877 81.2024 27.0079 81.649 27.0079C82.5846 27.0079 83.0523 26.5272 83.0523 25.5658C83.0523 24.5596 82.5788 24.0565 81.6317 24.0565C81.1812 24.0565 80.8348 24.1849 80.5922 24.4415C80.3497 24.6981 80.2284 25.079 80.2284 25.5842Z" fill="#1F2C3D"/>
<path fill-rule="evenodd" clip-rule="evenodd" d="M32.2362 34.6666H32.9606V2.28564H32.2362V34.6666Z" fill="#1F2C3D"/>
<path fill-rule="evenodd" clip-rule="evenodd" d="M8.02052 31.062L7.65294 31.1138C5.34947 31.3988 4.71233 30.8288 4.68783 30.8288C4.63882 30.7511 4.61431 30.7511 4.5408 30.6993C4.49179 30.5957 4.46728 29.9221 4.5653 29.4039C4.85936 28.3158 4.36926 27.6422 4.12421 27.2536C3.87916 26.9168 3.83015 26.7355 3.83015 26.6577C4.17322 26.1137 4.0507 25.5955 3.78114 25.3106C3.70763 25.2328 3.60961 25.1551 3.48708 25.1292C3.36456 25.0774 3.29104 25.0256 3.24203 24.9997L3.26654 23.8857C3.34005 23.3675 3.24203 22.9012 2.99698 22.5644C2.75193 22.2535 2.45787 22.1758 2.33534 22.1499C1.89425 22.124 1.60019 22.0462 1.50217 21.9167C1.50217 21.8908 1.42866 21.7613 1.42866 21.7094C1.47767 21.3986 2.38435 19.5332 3.16852 18.0565C3.95268 16.4503 3.41357 15.2326 3.04599 14.4554C2.92346 14.1963 2.82544 13.9372 2.80094 13.7818C2.45787 10.0771 3.5606 7.7713 4.78585 6.19096C5.00639 5.88007 4.98189 5.43964 4.73684 5.18057C4.41827 4.84378 3.92817 4.89559 3.65862 5.23239C2.26183 7.0718 0.987565 9.68844 1.37965 13.9372C1.40415 14.3518 1.60019 14.7404 1.77173 15.129C2.09029 15.8285 2.35985 16.4243 1.91876 17.3311C-0.0906574 21.0618 -0.0171423 21.6835 0.00736274 21.8908C0.00736274 21.8908 0.00736276 22.4608 0.472959 22.9789C0.791525 23.3416 1.25712 23.5748 1.84524 23.6525C1.84524 23.6784 1.84524 23.7302 1.82074 23.782L1.79623 25.2069C1.82074 25.3883 1.89425 25.8805 2.40886 26.2691C2.31084 26.6577 2.33534 27.2795 2.87445 28.0826C3.14401 28.4713 3.26654 28.6267 3.14401 29.0671C3.04599 29.6371 2.82544 31.2952 3.70763 31.9687C4.02619 32.2796 5.10441 33.005 7.82448 32.6423L8.21656 32.5905C9.3928 32.4092 10.4465 32.3055 11.0836 33.1864C12.0148 35.0517 13.6322 38.5492 13.7792 39.3523C13.8282 39.7409 14.1468 40 14.4899 40C14.5389 40 14.5634 40 14.6124 39.9741C15.0045 39.8964 15.274 39.5078 15.2005 39.0933C15.0045 37.772 12.7745 33.2382 12.3334 32.3314C11.0346 30.5697 9.14775 30.8806 8.02052 31.062Z" fill="#1F2C3D"/>
<path fill-rule="evenodd" clip-rule="evenodd" d="M25.7748 4.0434C25.4737 3.73163 24.997 3.73163 24.7211 4.0434C24.42 4.35517 24.4451 4.82283 24.7211 5.1346C24.8967 5.34245 25.0974 5.52432 25.2479 5.73217C29.2622 10.3568 28.5346 14.3059 28.5095 14.4618C28.4342 16.5403 26.0006 20.2556 25.0723 21.5286C22.0867 25.9974 23.5168 29.4788 23.567 29.6347C23.7426 30.0244 24.1691 30.2063 24.5454 30.0244C24.9218 29.8685 25.0974 29.4009 24.9218 29.0112C24.8716 28.8813 23.7928 26.1273 26.2766 22.438C26.6278 21.9703 29.8894 17.4496 29.9898 14.6696C29.9898 14.5917 30.893 9.94109 26.3518 4.69293C26.1511 4.48508 25.9755 4.25125 25.7748 4.0434Z" fill="#1F2C3D"/>
<path fill-rule="evenodd" clip-rule="evenodd" d="M6.17658 6.09521H14.107C14.5176 6.09521 14.8504 6.43632 14.8504 6.85712V10.6666C14.8504 11.0874 14.5176 11.4285 14.107 11.4285H6.17658C5.76597 11.4285 5.43311 11.0874 5.43311 10.6666V6.85712C5.43311 6.43632 5.76597 6.09521 6.17658 6.09521Z" fill="#D35400"/>
<path fill-rule="evenodd" clip-rule="evenodd" d="M10.8852 0H18.8156C19.2262 0 19.559 0.341105 19.559 0.761905V4.57143C19.559 4.99223 19.2262 5.33333 18.8156 5.33333H10.8852C10.4746 5.33333 10.1417 4.99223 10.1417 4.57143V0.761905C10.1417 0.341105 10.4746 0 10.8852 0Z" fill="#16A085"/>
<path fill-rule="evenodd" clip-rule="evenodd" d="M10.8852 12.1904H18.8156C19.2262 12.1904 19.559 12.5315 19.559 12.9523V16.7619C19.559 17.1826 19.2262 17.5238 18.8156 17.5238H10.8852C10.4746 17.5238 10.1417 17.1826 10.1417 16.7619V12.9523C10.1417 12.5315 10.4746 12.1904 10.8852 12.1904Z" fill="#3498DB"/>
<path fill-rule="evenodd" clip-rule="evenodd" d="M16.3183 6.09521H24.2487C24.6593 6.09521 24.9922 6.43632 24.9922 6.85712V10.6666C24.9922 11.0874 24.6593 11.4285 24.2487 11.4285H16.3183C15.9077 11.4285 15.5748 11.0874 15.5748 10.6666V6.85712C15.5748 6.43632 15.9077 6.09521 16.3183 6.09521Z" fill="#F39C12"/>
</g>
<defs>
<clipPath id="clip0_1610_35818">
<rect width="92" height="40" fill="white"/>
</clipPath>
</defs>
</svg>
